<svg version="1.2" xmlns="http://www.w3.org/2000/svg" viewBox="0 0 1599 403" width="1599" height="403">
	<title>Dolby_logo_2019-svg</title>
	<style>
		.s0 { fill: #ffffff } 
	</style>
	<path id="path2" fill="#ffffff" d="m446.7 309.1h-45c-86.2 0-154.7-70.4-154.7-154.6 0-84.1 70.5-154.5 154.7-154.5h45zm-446.7-309.1h45c86.2 0 154.7 70.4 154.7 154.6 0 84.1-70.5 154.5-154.7 154.5h-45z"/>
	<path id="rect2" fill-rule="evenodd" fill="#ffffff" d="m1074.8 0.1h46.9v309h-46.9zm-96.4 103.2c13 5.4 24.8 13.3 34.7 23.2 10 9.9 17.9 21.7 23.2 34.7 5.4 12.9 8.2 26.8 8.2 40.9 0 43.3-26.1 82.3-66.1 98.8-40 16.6-86 7.4-116.6-23.2-30.7-30.6-39.8-76.6-23.3-116.5 16.6-40 55.7-66.1 99-66.1 14 0 27.9 2.8 40.9 8.2zm-16.2 158c7.8-3.3 14.9-8 20.9-14 6-6 10.7-13.1 14-20.9 3.2-7.8 4.9-16.2 4.9-24.7 0-35.4-29.1-64.5-64.5-64.5-17.3-0.2-33.9 6.5-46.2 18.6-12.2 12.1-19.1 28.7-19.1 45.9 0 17.2 6.9 33.7 19.1 45.9 12.3 12.1 28.9 18.8 46.2 18.6 8.4 0 16.8-1.7 24.7-4.9zm393.2-122.5c20.2 27.4 26.1 62.9 15.9 95.3-10.2 32.5-35.3 58.2-67.6 69.2-32.3 11-67.8 6-95.8-13.5v19.3h-46.9v-309h46.9v114.3q6.7-4.7 14-8.3 7.4-3.6 15.1-6 7.8-2.5 15.9-3.7 8.1-1.3 16.2-1.3c34.1 0 66.2 16.2 86.3 43.7zm-61.6 122.5c7.9-3.3 15-8 21-14 6-6 10.7-13.1 14-20.9 3.2-7.8 4.9-16.2 4.9-24.7 0-35.4-29.1-64.5-64.6-64.5-16.9 0.2-33.2 7.1-45.1 19.2-12 12-18.7 28.3-18.7 45.3 0 17 6.7 33.3 18.7 45.4 11.9 12 28.2 18.9 45.1 19.1 8.5 0 16.9-1.7 24.7-4.9zm-487.2-106.9c0 85.1-69.3 154.4-154.5 154.4h-111.6v-308.8h111.6c85.2 0 154.5 69.3 154.5 154.4zm-46.8 0c0-59.3-48.4-107.6-107.7-107.6h-64.7v215.2h64.7c59.3 0 107.7-48.3 107.7-107.6zm839.2-59.2l-121.3 270.8c-3.3 7.3-7.9 13.8-13.7 19.3-5.7 5.5-12.5 9.7-20 12.6-7.4 2.9-15.3 4.2-23.2 4-8-0.2-15.8-1.9-23.1-5.2l-16.2-7.2h-0.1l18.9-42.4 6.7 3c3 1.3 6.3 2.1 9.5 2.1 3.3 0.1 6.6-0.4 9.6-1.6 3.1-1.2 5.9-3 8.3-5.2 2.4-2.3 4.3-5 5.6-8 0.1-0.1 21.2-47.7 21.2-47.7l-86.6-194.5h51.2l61 137.1 61-137.1z"/>
</svg>